<svg width="30" height="30" viewBox="0 0 30 30" fill="none" xmlns="http://www.w3.org/2000/svg">
<rect width="30" height="30" rx="15" fill="#0292B7"/>
<g clip-path="url(#clip0_774_1416)">
<path d="M17.1251 10.7082L19.2918 12.8749M20.4694 11.6897C20.7558 11.4034 20.9167 11.0151 20.9167 10.6101C20.9168 10.2051 20.756 9.81674 20.4696 9.53036C20.1833 9.24398 19.795 9.08306 19.39 9.08301C18.9851 9.08296 18.5967 9.24378 18.3103 9.53009L11.0812 16.7608C10.9554 16.8862 10.8624 17.0406 10.8104 17.2104L10.0948 19.5677C10.0808 19.6146 10.0798 19.6643 10.0918 19.7117C10.1038 19.7591 10.1284 19.8024 10.163 19.8369C10.1976 19.8715 10.2409 19.896 10.2883 19.9079C10.3357 19.9198 10.3855 19.9187 10.4323 19.9046L12.7902 19.1896C12.9598 19.138 13.1142 19.0456 13.2398 18.9204L20.4694 11.6897Z" stroke="white" stroke-linecap="round" stroke-linejoin="round"/>
</g>
<defs>
<clipPath id="clip0_774_1416">
<rect width="13" height="13" fill="white" transform="translate(9 8)"/>
</clipPath>
</defs>
</svg>
