<svg width="79" height="75" viewBox="0 0 79 75" fill="none" xmlns="http://www.w3.org/2000/svg">
<rect x="1.77734" y="1" width="75.4457" height="73" rx="15" fill="white" stroke="#0292B7" stroke-width="2"/>
<path d="M37.1665 22.4999H24.3332C23.3607 22.4999 22.4281 22.895 21.7404 23.5983C21.0528 24.3015 20.6665 25.2554 20.6665 26.2499V52.4999C20.6665 53.4945 21.0528 54.4483 21.7404 55.1516C22.4281 55.8548 23.3607 56.2499 24.3332 56.2499H49.9998C50.9723 56.2499 51.9049 55.8548 52.5926 55.1516C53.2802 54.4483 53.6665 53.4945 53.6665 52.4999V39.3749M50.9165 19.6874C51.6458 18.9415 52.6351 18.5225 53.6665 18.5225C54.698 18.5225 55.6872 18.9415 56.4165 19.6874C57.1459 20.4334 57.5556 21.445 57.5556 22.4999C57.5556 23.5548 57.1459 24.5665 56.4165 25.3124L38.9998 43.1249L31.6665 44.9999L33.4998 37.4999L50.9165 19.6874Z" stroke="#0292B7" stroke-width="3" stroke-linecap="round" stroke-linejoin="round"/>
</svg>
