<svg width="53" height="54" viewBox="0 0 53 54" fill="none" xmlns="http://www.w3.org/2000/svg">
<rect x="4" y="4" width="45" height="46" rx="22.5" fill="#98E2FA" fill-opacity="0.48"/>
<rect x="4" y="4" width="45" height="46" rx="22.5" stroke="#238CAE" stroke-opacity="0.08" stroke-width="8"/>
<path d="M25.459 18.3333H18.1673C17.6148 18.3333 17.0849 18.5615 16.6942 18.9679C16.3035 19.3742 16.084 19.9253 16.084 20.4999V35.6666C16.084 36.2412 16.3035 36.7923 16.6942 37.1987C17.0849 37.605 17.6148 37.8333 18.1673 37.8333H32.7507C33.3032 37.8333 33.8331 37.605 34.2238 37.1987C34.6145 36.7923 34.834 36.2412 34.834 35.6666V28.0833M33.2715 16.7083C33.6859 16.2773 34.2479 16.0352 34.834 16.0352C35.42 16.0352 35.9821 16.2773 36.3965 16.7083C36.8109 17.1392 37.0437 17.7238 37.0437 18.3333C37.0437 18.9427 36.8109 19.5273 36.3965 19.9583L26.5007 30.2499L22.334 31.3333L23.3757 26.9999L33.2715 16.7083Z" stroke="#0292B7" stroke-width="2" stroke-linecap="round" stroke-linejoin="round"/>
</svg>
