<svg width="59" height="59" viewBox="0 0 59 59" fill="none" xmlns="http://www.w3.org/2000/svg">
<rect y="0.5" width="58.5" height="58.5" rx="29.25" fill="url(#paint0_linear_596_1911)"/>
<g clip-path="url(#clip0_596_1911)">
<path d="M18.5246 41.4082C22.0996 44.0081 25.6747 46.0882 29.2496 46.0882C32.8246 46.0882 36.3997 44.0081 39.9746 41.4082C37.0279 40.5112 35.5329 39.1722 35.4896 37.3912C35.4896 37.0737 35.492 36.6229 35.4941 35.7764C35.4941 35.6419 35.4944 35.5043 35.4951 35.3634C35.5009 33.0936 35.5105 30.0984 35.524 27.0564C38.3187 23.4338 37.292 19.1869 36.4163 19.2928C35.3426 19.4235 26.0405 10.5962 24.2563 10.1436C22.472 9.69102 17.9396 11.1522 17.1596 15.2228C16.3796 19.2934 16.0536 29.5539 19.0121 33.6503C19.854 34.816 21.18 35.272 22.9901 35.0182C22.9927 35.8702 22.9977 36.3483 23.0096 37.3132C22.9864 39.1752 21.4916 40.5121 18.5246 41.4082Z" fill="url(#paint1_linear_596_1911)"/>
<path d="M23.0098 35.0148C27.2998 34.5273 30.0298 32.6748 30.0298 32.6748C30.0298 32.6748 26.9098 36.5748 23.0098 37.3548V35.0148Z" fill="white"/>
<path d="M36.9524 27.1176C38.2959 23.8865 43.6799 17.3058 39.0389 13.2108C37.4789 5.60579 28.8599 6.44761 23.1074 8.20261C19.2411 9.38216 16.3214 11.7126 15.6974 9.95761C11.7974 13.2108 13.7505 16.3926 16.3214 17.3058C18.6548 18.1345 22.6004 18.9633 29.3096 18.1833C30.508 18.0439 30.2571 21.7144 30.8974 22.1112C31.8582 22.7065 32.6039 18.9633 35.238 20.0873C37.872 21.2113 36.3089 26.4228 33.4814 26.4228C32.5064 26.4228 32.0189 29.1035 34.6514 30.371C36.5624 31.3101 36.0794 29.2172 36.9524 27.1176Z" fill="url(#paint2_linear_596_1911)"/>
<path d="M49.7246 47.36C51.581 51.1346 52.6496 59.84 52.6496 59.84H5.84961C5.84961 59.84 6.9186 51.1337 8.77461 47.36C10.6306 43.5864 21.4691 40.0863 21.4691 40.0863C27.4581 42.425 31.1232 42.425 37.0245 40.085C37.0245 40.085 47.8682 43.5854 49.7246 47.36Z" fill="url(#paint3_linear_596_1911)"/>
<path d="M30.6142 41.4506L31.5892 59.3906H26.9092L27.8842 41.4506C27.8842 41.4506 28.7942 40.4756 29.2492 40.4756C29.7041 40.4756 30.6142 41.4506 30.6142 41.4506Z" fill="url(#paint4_linear_596_1911)"/>
<path d="M30.8359 45.0955L27.7695 43.3238L27.8838 41.4506C28.4905 40.8006 28.9455 40.4756 29.2488 40.4756C29.5521 40.4756 30.0071 40.8006 30.6138 41.4506L30.8361 45.0955H30.8359Z" fill="black"/>
<path d="M29.2499 40.4736L27.2999 43.9851L21.2549 40.2801L23.0099 37.7451L29.2499 40.0502L35.4899 37.7451L37.2449 40.2801L31.1999 43.9851L29.2499 40.4736Z" fill="white"/>
</g>
<defs>
<linearGradient id="paint0_linear_596_1911" x1="29.25" y1="59" x2="29.25" y2="0.5" gradientUnits="userSpaceOnUse">
<stop stop-color="#21568A"/>
<stop offset="1" stop-color="#21568A"/>
</linearGradient>
<linearGradient id="paint1_linear_596_1911" x1="28.2984" y1="10.0645" x2="28.2984" y2="46.0882" gradientUnits="userSpaceOnUse">
<stop stop-color="white"/>
<stop offset="1" stop-color="white"/>
</linearGradient>
<linearGradient id="paint2_linear_596_1911" x1="27.1908" y1="7.01074" x2="27.1908" y2="30.6019" gradientUnits="userSpaceOnUse">
<stop/>
<stop offset="1"/>
</linearGradient>
<linearGradient id="paint3_linear_596_1911" x1="29.2496" y1="40.085" x2="29.2496" y2="59.84" gradientUnits="userSpaceOnUse">
<stop stop-color="#0292B7"/>
<stop offset="1" stop-color="#0292B7"/>
</linearGradient>
<linearGradient id="paint4_linear_596_1911" x1="29.2492" y1="40.4756" x2="29.2492" y2="59.3906" gradientUnits="userSpaceOnUse">
<stop/>
<stop offset="1"/>
</linearGradient>
<clipPath id="clip0_596_1911">
<rect y="0.5" width="58.5" height="58.5" rx="29.25" fill="white"/>
</clipPath>
</defs>
</svg>
