<svg width="46" height="46" viewBox="0 0 46 46" fill="none" xmlns="http://www.w3.org/2000/svg">
<g clip-path="url(#clip0_595_1172)">
<rect width="46" height="46" rx="23" fill="#21568A"/>
<path d="M18.9051 32.0269C20.233 29.8189 23.2818 25.5867 30.5411 19.6397C41.4952 10.6659 31.1567 2.45783 20.0502 6.82941C18.862 7.29712 15.5697 5.42479 12.5198 7.3973C10.5525 8.66973 11.3181 9.66692 10.5521 10.6641C9.78604 11.6613 6.8327 11.6026 6.18571 14.192C5.80253 15.726 6.86291 17.3329 6.72108 18.4876C6.57925 19.6422 5.45986 20.683 5.40645 22.2073C5.38333 22.8511 5.48727 23.4931 5.71232 24.0968C5.93738 24.7004 6.27915 25.2538 6.7181 25.7253C7.15706 26.1968 7.68461 26.5773 8.27061 26.8449C8.85662 27.1125 9.48961 27.262 10.1334 27.285C10.1387 28.5577 10.6356 29.7792 11.5205 30.6941C12.4053 31.609 13.6094 32.1466 14.8813 32.1944C15.6969 32.2242 16.5069 32.0487 17.237 31.6841C17.9614 32.3518 18.5833 32.5618 18.9051 32.0269Z" fill="url(#paint0_linear_595_1172)"/>
<path d="M21.6207 6.28582C19.7322 7.49715 17.3959 11.47 18.4214 16.8031C18.6451 17.9668 17.9461 18.3151 17.3481 16.8798C15.5438 12.5495 15.3346 8.64424 18.4214 6.77618C18.9581 6.45311 19.2647 6.71485 19.6481 6.68311C20.3772 6.62269 21.3588 6.10611 21.6207 6.28582Z" fill="url(#paint1_linear_595_1172)"/>
<path d="M19.1669 29.7466C19.1669 28.3666 19.12 21.5598 19.1223 21.4448C15.3336 22.0033 15.4103 14.7966 19.2436 16.5599C20.0869 17.0966 22.4636 16.5599 22.2336 12.1133C26.3736 16.5599 31.1802 11.3736 31.5923 15.5998C32.1552 21.3705 31.5889 27.4097 28.0026 27.4101C27.6103 27.4054 27.2191 27.3663 26.8336 27.2933V29.7466C26.8336 31.2799 29.5936 32.0466 29.5936 32.0466C29.5936 32.0466 24.8262 36.5393 22.8469 36.5144C20.8677 36.4896 16.4069 32.0466 16.4069 32.0466C16.4069 32.0466 19.1669 31.2799 19.1669 29.7466Z" fill="url(#paint2_linear_595_1172)"/>
<g style="mix-blend-mode:multiply">
<path d="M26.8336 27.2927C24.9314 26.8708 23.1288 26.0847 21.5254 24.9775C21.5254 24.9775 22.8484 28.2118 26.8287 28.8255L26.8336 27.2927Z" fill="white"/>
</g>
<path d="M37.107 36.646C38.2195 39.118 38.7937 46.6126 38.7937 46.6126H7.20703C7.20703 46.6126 7.78126 39.118 8.8937 36.646C9.86828 34.4804 16.2903 31.994 18.1724 31.2793C19.259 32.4949 20.8163 33.2726 23.0004 33.2726C25.1844 33.2726 26.7417 32.4949 27.8284 31.2793C29.7104 31.994 36.1324 34.4804 37.107 36.646Z" fill="url(#paint3_linear_595_1172)"/>
</g>
<defs>
<linearGradient id="paint0_linear_595_1172" x1="19.7735" y1="32.3782" x2="20.718" y2="5.41852" gradientUnits="userSpaceOnUse">
<stop/>
<stop offset="1"/>
</linearGradient>
<linearGradient id="paint1_linear_595_1172" x1="18.8284" y1="6.24805" x2="18.8284" y2="17.8225" gradientUnits="userSpaceOnUse">
<stop stop-color="#0292B7"/>
<stop offset="1" stop-color="#0292B7" stop-opacity="0.34"/>
</linearGradient>
<linearGradient id="paint2_linear_595_1172" x1="24.0521" y1="12.1133" x2="24.0521" y2="36.5145" gradientUnits="userSpaceOnUse">
<stop stop-color="white"/>
<stop offset="1" stop-color="#FFEADB"/>
</linearGradient>
<linearGradient id="paint3_linear_595_1172" x1="23.0004" y1="31.2793" x2="23.0004" y2="46.6126" gradientUnits="userSpaceOnUse">
<stop stop-color="#0292B7"/>
<stop offset="1" stop-color="#0292B7" stop-opacity="0.34"/>
</linearGradient>
<clipPath id="clip0_595_1172">
<rect width="46" height="46" rx="23" fill="white"/>
</clipPath>
</defs>
</svg>
